<mxfile host="app.diagrams.net" modified="2022-04-04T15:27:50.708Z" agent="5.0 (Macintosh; Intel Mac OS X 10_15_6) AppleWebKit/605.1.15 (KHTML, like Gecko) Version/14.0.2 Safari/605.1.15" etag="t4G56GKkiPT--rrcfiU_" version="17.4.0" type="github">
  <diagram id="C5RBs43oDa-KdzZeNtuy" name="Page-1">
    <mxGraphModel dx="1694" dy="1136" grid="1" gridSize="10" guides="1" tooltips="1" connect="1" arrows="1" fold="1" page="1" pageScale="1" pageWidth="827" pageHeight="1169" math="0" shadow="0">
      <root>
        <mxCell id="WIyWlLk6GJQsqaUBKTNV-0" />
        <mxCell id="WIyWlLk6GJQsqaUBKTNV-1" parent="WIyWlLk6GJQsqaUBKTNV-0" />
        <UserObject label="Input ID" lucidchartObjectId="mHa8FbC-u3HO" id="j4JM0gO3ZsuQMc5hAkjS-90">
          <mxCell style="html=1;overflow=block;blockSpacing=1;whiteSpace=wrap;ellipse;fontSize=13;spacing=0;strokeColor=#3a414a;strokeOpacity=100;rounded=1;absoluteArcSize=1;arcSize=9;strokeWidth=0.8;" vertex="1" parent="WIyWlLk6GJQsqaUBKTNV-1">
            <mxGeometry x="435" y="405" width="210" height="180" as="geometry" />
          </mxCell>
        </UserObject>
        <UserObject label="Display invalid ID" lucidchartObjectId="PMa80WgqF6gf" id="j4JM0gO3ZsuQMc5hAkjS-91">
          <mxCell style="html=1;overflow=block;blockSpacing=1;whiteSpace=wrap;ellipse;fontSize=13;spacing=3.8;strokeColor=#3a414a;strokeOpacity=100;rounded=1;absoluteArcSize=1;arcSize=9;strokeWidth=0.8;" vertex="1" parent="WIyWlLk6GJQsqaUBKTNV-1">
            <mxGeometry x="210" y="504" width="120" height="75" as="geometry" />
          </mxCell>
        </UserObject>
        <UserObject label="Select exit" lucidchartObjectId="DQa82I.A3JS7" id="j4JM0gO3ZsuQMc5hAkjS-92">
          <mxCell style="html=1;overflow=block;blockSpacing=1;whiteSpace=wrap;ellipse;fontSize=13;spacing=3.8;strokeColor=#3a414a;strokeOpacity=100;rounded=1;absoluteArcSize=1;arcSize=9;strokeWidth=0.8;" vertex="1" parent="WIyWlLk6GJQsqaUBKTNV-1">
            <mxGeometry x="210" y="390" width="120" height="75" as="geometry" />
          </mxCell>
        </UserObject>
        <UserObject label="Check ID exist" lucidchartObjectId="1Va8YR-hhlV3" id="j4JM0gO3ZsuQMc5hAkjS-93">
          <mxCell style="html=1;overflow=block;blockSpacing=1;whiteSpace=wrap;ellipse;fontSize=13;spacing=3.8;strokeColor=#3a414a;strokeOpacity=100;rounded=1;absoluteArcSize=1;arcSize=9;strokeWidth=0.8;" vertex="1" parent="WIyWlLk6GJQsqaUBKTNV-1">
            <mxGeometry x="705" y="405" width="120" height="90" as="geometry" />
          </mxCell>
        </UserObject>
        <UserObject label="Display valid ID" lucidchartObjectId="ZXa8n5DUXpTZ" id="j4JM0gO3ZsuQMc5hAkjS-94">
          <mxCell style="html=1;overflow=block;blockSpacing=1;whiteSpace=wrap;ellipse;fontSize=13;spacing=3.8;strokeColor=#3a414a;strokeOpacity=100;rounded=1;absoluteArcSize=1;arcSize=9;strokeWidth=0.8;" vertex="1" parent="WIyWlLk6GJQsqaUBKTNV-1">
            <mxGeometry x="705" y="555" width="120" height="75" as="geometry" />
          </mxCell>
        </UserObject>
        <UserObject label="Input new data" lucidchartObjectId="qYa8J5TgPwk7" id="j4JM0gO3ZsuQMc5hAkjS-95">
          <mxCell style="html=1;overflow=block;blockSpacing=1;whiteSpace=wrap;ellipse;fontSize=13;spacing=3.8;strokeColor=#3a414a;strokeOpacity=100;rounded=1;absoluteArcSize=1;arcSize=9;strokeWidth=0.8;" vertex="1" parent="WIyWlLk6GJQsqaUBKTNV-1">
            <mxGeometry x="885" y="488" width="120" height="75" as="geometry" />
          </mxCell>
        </UserObject>
        <UserObject label="Add to list" lucidchartObjectId="m9a8UZ9RnOd5" id="j4JM0gO3ZsuQMc5hAkjS-96">
          <mxCell style="html=1;overflow=block;blockSpacing=1;whiteSpace=wrap;ellipse;fontSize=13;spacing=3.8;strokeColor=#3a414a;strokeOpacity=100;rounded=1;absoluteArcSize=1;arcSize=9;strokeWidth=0.8;" vertex="1" parent="WIyWlLk6GJQsqaUBKTNV-1">
            <mxGeometry x="885" y="345" width="120" height="75" as="geometry" />
          </mxCell>
        </UserObject>
        <UserObject label="Display successfullly" lucidchartObjectId="H-a8ZPSqh-qd" id="j4JM0gO3ZsuQMc5hAkjS-97">
          <mxCell style="html=1;overflow=block;blockSpacing=1;whiteSpace=wrap;ellipse;fontSize=13;spacing=3.8;strokeColor=#3a414a;strokeOpacity=100;rounded=1;absoluteArcSize=1;arcSize=9;strokeWidth=0.8;" vertex="1" parent="WIyWlLk6GJQsqaUBKTNV-1">
            <mxGeometry x="885" y="195" width="120" height="75" as="geometry" />
          </mxCell>
        </UserObject>
        <UserObject label="Display invalid choice" lucidchartObjectId="4.a8jyZt7I0b" id="j4JM0gO3ZsuQMc5hAkjS-98">
          <mxCell style="html=1;overflow=block;blockSpacing=1;whiteSpace=wrap;ellipse;fontSize=13;spacing=3.8;strokeColor=#3a414a;strokeOpacity=100;rounded=1;absoluteArcSize=1;arcSize=9;strokeWidth=0.8;" vertex="1" parent="WIyWlLk6GJQsqaUBKTNV-1">
            <mxGeometry x="675" y="90" width="120" height="60" as="geometry" />
          </mxCell>
        </UserObject>
        <UserObject label="Select create new student " lucidchartObjectId="uab8n~fae0BG" id="j4JM0gO3ZsuQMc5hAkjS-99">
          <mxCell style="html=1;overflow=block;blockSpacing=1;whiteSpace=wrap;ellipse;fontSize=13;spacing=0;strokeColor=#3a414a;strokeOpacity=100;rounded=1;absoluteArcSize=1;arcSize=9;strokeWidth=0.8;" vertex="1" parent="WIyWlLk6GJQsqaUBKTNV-1">
            <mxGeometry x="465" y="248" width="150" height="105" as="geometry" />
          </mxCell>
        </UserObject>
        <UserObject label="Select exit" lucidchartObjectId="Oab8FPMww8My" id="j4JM0gO3ZsuQMc5hAkjS-100">
          <mxCell style="html=1;overflow=block;blockSpacing=1;whiteSpace=wrap;ellipse;fontSize=13;spacing=0;strokeColor=#3a414a;strokeOpacity=100;rounded=1;absoluteArcSize=1;arcSize=9;strokeWidth=0.8;" vertex="1" parent="WIyWlLk6GJQsqaUBKTNV-1">
            <mxGeometry x="405" y="120" width="150" height="90" as="geometry" />
          </mxCell>
        </UserObject>
        <UserObject label="" lucidchartObjectId="Wmb8q0fEmkBV" id="j4JM0gO3ZsuQMc5hAkjS-101">
          <mxCell style="html=1;jettySize=18;whiteSpace=wrap;fontSize=13;strokeColor=#3a414a;strokeOpacity=100;dashed=1;fixDash=1;strokeWidth=0.8;rounded=0;startArrow=none;endArrow=open;exitX=0.816;exitY=0.109;exitPerimeter=0;entryX=-0.002;entryY=0.526;entryPerimeter=0;" edge="1" parent="WIyWlLk6GJQsqaUBKTNV-1" source="j4JM0gO3ZsuQMc5hAkjS-129" target="j4JM0gO3ZsuQMc5hAkjS-100">
            <mxGeometry width="100" height="100" relative="1" as="geometry">
              <Array as="points" />
            </mxGeometry>
          </mxCell>
        </UserObject>
        <mxCell id="j4JM0gO3ZsuQMc5hAkjS-102" value="&amp;lt;&amp;lt;Include&amp;gt;&amp;gt;" style="text;html=1;resizable=0;labelBackgroundColor=default;align=center;verticalAlign=middle;fontStyle=1;fontColor=#333333;fontSize=13.3;" vertex="1" parent="j4JM0gO3ZsuQMc5hAkjS-101">
          <mxGeometry relative="1" as="geometry" />
        </mxCell>
        <UserObject label="" lucidchartObjectId="lnb8wjUi0QL5" id="j4JM0gO3ZsuQMc5hAkjS-103">
          <mxCell style="html=1;jettySize=18;whiteSpace=wrap;fontSize=13;strokeColor=#3a414a;strokeOpacity=100;dashed=1;fixDash=1;strokeWidth=0.8;rounded=0;startArrow=none;endArrow=open;exitX=1.002;exitY=0.5;exitPerimeter=0;entryX=-0.003;entryY=0.5;entryPerimeter=0;" edge="1" parent="WIyWlLk6GJQsqaUBKTNV-1" source="j4JM0gO3ZsuQMc5hAkjS-129" target="j4JM0gO3ZsuQMc5hAkjS-99">
            <mxGeometry width="100" height="100" relative="1" as="geometry">
              <Array as="points" />
            </mxGeometry>
          </mxCell>
        </UserObject>
        <mxCell id="j4JM0gO3ZsuQMc5hAkjS-104" value="&amp;lt;&amp;lt;Include&amp;gt;&amp;gt;" style="text;html=1;resizable=0;labelBackgroundColor=default;align=center;verticalAlign=middle;fontStyle=1;fontColor=#333333;fontSize=13.3;" vertex="1" parent="j4JM0gO3ZsuQMc5hAkjS-103">
          <mxGeometry relative="1" as="geometry" />
        </mxCell>
        <UserObject label="" lucidchartObjectId="eob8lZchYwXj" id="j4JM0gO3ZsuQMc5hAkjS-105">
          <mxCell style="html=1;jettySize=18;whiteSpace=wrap;fontSize=13;strokeColor=#3a414a;strokeOpacity=100;dashed=1;fixDash=1;strokeWidth=0.8;rounded=0;startArrow=none;endArrow=open;exitX=0.117;exitY=0.176;exitPerimeter=0;entryX=1.003;entryY=0.5;entryPerimeter=0;" edge="1" parent="WIyWlLk6GJQsqaUBKTNV-1" source="j4JM0gO3ZsuQMc5hAkjS-90" target="j4JM0gO3ZsuQMc5hAkjS-92">
            <mxGeometry width="100" height="100" relative="1" as="geometry">
              <Array as="points" />
            </mxGeometry>
          </mxCell>
        </UserObject>
        <mxCell id="j4JM0gO3ZsuQMc5hAkjS-106" value="I&amp;lt;&amp;lt;Include&amp;gt;&amp;gt;" style="text;html=1;resizable=0;labelBackgroundColor=default;align=center;verticalAlign=middle;fontStyle=1;fontColor=#333333;fontSize=13.3;" vertex="1" parent="j4JM0gO3ZsuQMc5hAkjS-105">
          <mxGeometry relative="1" as="geometry" />
        </mxCell>
        <UserObject label="" lucidchartObjectId="Vob8nI.QNhCe" id="j4JM0gO3ZsuQMc5hAkjS-107">
          <mxCell style="html=1;jettySize=18;whiteSpace=wrap;fontSize=13;strokeColor=#3a414a;strokeOpacity=100;dashed=1;fixDash=1;strokeWidth=0.8;rounded=0;startArrow=none;endArrow=open;exitX=0.5;exitY=1.004;exitPerimeter=0;entryX=0.5;entryY=-0.002;entryPerimeter=0;" edge="1" parent="WIyWlLk6GJQsqaUBKTNV-1" source="j4JM0gO3ZsuQMc5hAkjS-99" target="j4JM0gO3ZsuQMc5hAkjS-90">
            <mxGeometry width="100" height="100" relative="1" as="geometry">
              <Array as="points" />
            </mxGeometry>
          </mxCell>
        </UserObject>
        <mxCell id="j4JM0gO3ZsuQMc5hAkjS-108" value="&amp;lt;&amp;lt;Include&amp;gt;&amp;gt;" style="text;html=1;resizable=0;labelBackgroundColor=default;align=center;verticalAlign=middle;fontStyle=1;fontColor=#333333;fontSize=13.3;" vertex="1" parent="j4JM0gO3ZsuQMc5hAkjS-107">
          <mxGeometry relative="1" as="geometry" />
        </mxCell>
        <UserObject label="" lucidchartObjectId="upb89a0rZcZW" id="j4JM0gO3ZsuQMc5hAkjS-109">
          <mxCell style="html=1;jettySize=18;whiteSpace=wrap;fontSize=13;strokeColor=#3a414a;strokeOpacity=100;dashed=1;fixDash=1;strokeWidth=0.8;rounded=0;startArrow=none;endArrow=open;exitX=0.813;exitY=0.105;exitPerimeter=0;entryX=-0.002;entryY=0.5;entryPerimeter=0;" edge="1" parent="WIyWlLk6GJQsqaUBKTNV-1" source="j4JM0gO3ZsuQMc5hAkjS-91" target="j4JM0gO3ZsuQMc5hAkjS-90">
            <mxGeometry width="100" height="100" relative="1" as="geometry">
              <Array as="points" />
            </mxGeometry>
          </mxCell>
        </UserObject>
        <mxCell id="j4JM0gO3ZsuQMc5hAkjS-110" value="&amp;lt;&amp;lt;Exntend&amp;gt;&amp;gt;" style="text;html=1;resizable=0;labelBackgroundColor=default;align=center;verticalAlign=middle;fontStyle=1;fontColor=#333333;fontSize=13.3;" vertex="1" parent="j4JM0gO3ZsuQMc5hAkjS-109">
          <mxGeometry x="-0.11652443503951138" relative="1" as="geometry" />
        </mxCell>
        <UserObject label="" lucidchartObjectId="Vpb8KKqE-k80" id="j4JM0gO3ZsuQMc5hAkjS-111">
          <mxCell style="html=1;jettySize=18;whiteSpace=wrap;fontSize=13;strokeColor=#3a414a;strokeOpacity=100;dashed=1;fixDash=1;strokeWidth=0.8;rounded=0;startArrow=none;endArrow=open;exitX=-0.003;exitY=0.5;exitPerimeter=0;entryX=1.003;entryY=0.5;entryPerimeter=0;" edge="1" parent="WIyWlLk6GJQsqaUBKTNV-1" source="j4JM0gO3ZsuQMc5hAkjS-98" target="j4JM0gO3ZsuQMc5hAkjS-100">
            <mxGeometry width="100" height="100" relative="1" as="geometry">
              <Array as="points" />
            </mxGeometry>
          </mxCell>
        </UserObject>
        <mxCell id="j4JM0gO3ZsuQMc5hAkjS-112" value="&amp;lt;&amp;lt;Extdend&amp;gt;&amp;gt;" style="text;html=1;resizable=0;labelBackgroundColor=default;align=center;verticalAlign=middle;fontStyle=1;fontColor=#333333;fontSize=13.3;" vertex="1" parent="j4JM0gO3ZsuQMc5hAkjS-111">
          <mxGeometry relative="1" as="geometry" />
        </mxCell>
        <UserObject label="" lucidchartObjectId="eqb8_KJ5muBw" id="j4JM0gO3ZsuQMc5hAkjS-113">
          <mxCell style="html=1;jettySize=18;whiteSpace=wrap;fontSize=13;strokeColor=#3a414a;strokeOpacity=100;dashed=1;fixDash=1;strokeWidth=0.8;rounded=0;startArrow=none;endArrow=open;exitX=0.195;exitY=0.902;exitPerimeter=0;entryX=0.871;entryY=0.16;entryPerimeter=0;" edge="1" parent="WIyWlLk6GJQsqaUBKTNV-1" source="j4JM0gO3ZsuQMc5hAkjS-98" target="j4JM0gO3ZsuQMc5hAkjS-99">
            <mxGeometry width="100" height="100" relative="1" as="geometry">
              <Array as="points" />
            </mxGeometry>
          </mxCell>
        </UserObject>
        <mxCell id="j4JM0gO3ZsuQMc5hAkjS-114" value="&amp;lt;&amp;lt;Extend&amp;gt;&amp;gt;" style="text;html=1;resizable=0;labelBackgroundColor=default;align=center;verticalAlign=middle;fontStyle=1;fontColor=#333333;fontSize=13.3;" vertex="1" parent="j4JM0gO3ZsuQMc5hAkjS-113">
          <mxGeometry relative="1" as="geometry" />
        </mxCell>
        <UserObject label="" lucidchartObjectId="Nqb8Me_qiDZH" id="j4JM0gO3ZsuQMc5hAkjS-115">
          <mxCell style="html=1;jettySize=18;whiteSpace=wrap;fontSize=13;strokeColor=#3a414a;strokeOpacity=100;dashed=1;fixDash=1;strokeWidth=0.8;rounded=0;startArrow=none;endArrow=open;exitX=0.935;exitY=0.25;exitPerimeter=0;entryX=-0.003;entryY=0.5;entryPerimeter=0;" edge="1" parent="WIyWlLk6GJQsqaUBKTNV-1" source="j4JM0gO3ZsuQMc5hAkjS-90" target="j4JM0gO3ZsuQMc5hAkjS-93">
            <mxGeometry width="100" height="100" relative="1" as="geometry">
              <Array as="points" />
            </mxGeometry>
          </mxCell>
        </UserObject>
        <mxCell id="j4JM0gO3ZsuQMc5hAkjS-116" value="&amp;lt;&amp;lt;Include&amp;gt;&amp;gt;" style="text;html=1;resizable=0;labelBackgroundColor=default;align=center;verticalAlign=middle;fontStyle=1;fontColor=#333333;fontSize=13.3;" vertex="1" parent="j4JM0gO3ZsuQMc5hAkjS-115">
          <mxGeometry relative="1" as="geometry" />
        </mxCell>
        <UserObject label="" lucidchartObjectId="6qb8cWZSV_Ia" id="j4JM0gO3ZsuQMc5hAkjS-117">
          <mxCell style="html=1;jettySize=18;whiteSpace=wrap;fontSize=13;strokeColor=#3a414a;strokeOpacity=100;dashed=1;fixDash=1;strokeWidth=0.8;rounded=0;startArrow=none;endArrow=open;exitX=0.5;exitY=1.004;exitPerimeter=0;entryX=0.5;entryY=-0.005;entryPerimeter=0;" edge="1" parent="WIyWlLk6GJQsqaUBKTNV-1" source="j4JM0gO3ZsuQMc5hAkjS-93" target="j4JM0gO3ZsuQMc5hAkjS-94">
            <mxGeometry width="100" height="100" relative="1" as="geometry">
              <Array as="points" />
            </mxGeometry>
          </mxCell>
        </UserObject>
        <mxCell id="j4JM0gO3ZsuQMc5hAkjS-118" value="&amp;lt;&amp;lt;Include&amp;gt;&amp;gt;" style="text;html=1;resizable=0;labelBackgroundColor=default;align=center;verticalAlign=middle;fontStyle=1;fontColor=#333333;fontSize=13.3;" vertex="1" parent="j4JM0gO3ZsuQMc5hAkjS-117">
          <mxGeometry x="-0.13349642672521145" relative="1" as="geometry" />
        </mxCell>
        <UserObject label="" lucidchartObjectId="Arb8xh4WzPYn" id="j4JM0gO3ZsuQMc5hAkjS-119">
          <mxCell style="html=1;jettySize=18;whiteSpace=wrap;fontSize=13;strokeColor=#3a414a;strokeOpacity=100;dashed=1;fixDash=1;strokeWidth=0.8;rounded=0;startArrow=none;endArrow=open;exitX=0.919;exitY=0.221;exitPerimeter=0;entryX=0.233;entryY=0.928;entryPerimeter=0;" edge="1" parent="WIyWlLk6GJQsqaUBKTNV-1" source="j4JM0gO3ZsuQMc5hAkjS-94" target="j4JM0gO3ZsuQMc5hAkjS-95">
            <mxGeometry width="100" height="100" relative="1" as="geometry">
              <Array as="points" />
            </mxGeometry>
          </mxCell>
        </UserObject>
        <mxCell id="j4JM0gO3ZsuQMc5hAkjS-120" value="&amp;lt;&amp;lt;Include&amp;gt;&amp;gt;" style="text;html=1;resizable=0;labelBackgroundColor=default;align=center;verticalAlign=middle;fontStyle=1;fontColor=#333333;fontSize=13.3;" vertex="1" parent="j4JM0gO3ZsuQMc5hAkjS-119">
          <mxGeometry x="-0.12458644486214088" relative="1" as="geometry" />
        </mxCell>
        <UserObject label="" lucidchartObjectId="Zrb83yh.wDxn" id="j4JM0gO3ZsuQMc5hAkjS-121">
          <mxCell style="html=1;jettySize=18;whiteSpace=wrap;fontSize=13;strokeColor=#3a414a;strokeOpacity=100;dashed=1;fixDash=1;strokeWidth=0.8;rounded=0;startArrow=none;endArrow=open;exitX=0.5;exitY=-0.005;exitPerimeter=0;entryX=0.5;entryY=1.005;entryPerimeter=0;" edge="1" parent="WIyWlLk6GJQsqaUBKTNV-1" source="j4JM0gO3ZsuQMc5hAkjS-95" target="j4JM0gO3ZsuQMc5hAkjS-96">
            <mxGeometry width="100" height="100" relative="1" as="geometry">
              <Array as="points" />
            </mxGeometry>
          </mxCell>
        </UserObject>
        <mxCell id="j4JM0gO3ZsuQMc5hAkjS-122" value="&amp;lt;&amp;lt;Include&amp;gt;&amp;gt;" style="text;html=1;resizable=0;labelBackgroundColor=default;align=center;verticalAlign=middle;fontStyle=1;fontColor=#333333;fontSize=13.3;" vertex="1" parent="j4JM0gO3ZsuQMc5hAkjS-121">
          <mxGeometry x="-0.26372134861695307" relative="1" as="geometry" />
        </mxCell>
        <UserObject label="" lucidchartObjectId="-rb8NfJUSlah" id="j4JM0gO3ZsuQMc5hAkjS-123">
          <mxCell style="html=1;jettySize=18;whiteSpace=wrap;fontSize=13;strokeColor=#3a414a;strokeOpacity=100;dashed=1;fixDash=1;strokeWidth=0.8;rounded=0;startArrow=none;endArrow=open;exitX=0.5;exitY=-0.005;exitPerimeter=0;entryX=0.5;entryY=1.005;entryPerimeter=0;" edge="1" parent="WIyWlLk6GJQsqaUBKTNV-1" source="j4JM0gO3ZsuQMc5hAkjS-96" target="j4JM0gO3ZsuQMc5hAkjS-97">
            <mxGeometry width="100" height="100" relative="1" as="geometry">
              <Array as="points" />
            </mxGeometry>
          </mxCell>
        </UserObject>
        <mxCell id="j4JM0gO3ZsuQMc5hAkjS-124" value="&amp;lt;&amp;lt;Include&amp;gt;&amp;gt;" style="text;html=1;resizable=0;labelBackgroundColor=default;align=center;verticalAlign=middle;fontStyle=1;fontColor=#333333;fontSize=13.3;" vertex="1" parent="j4JM0gO3ZsuQMc5hAkjS-123">
          <mxGeometry relative="1" as="geometry" />
        </mxCell>
        <UserObject label="" lucidchartObjectId="xsb8uF0S7NCb" id="j4JM0gO3ZsuQMc5hAkjS-125">
          <mxCell style="html=1;jettySize=18;whiteSpace=wrap;fontSize=13;strokeColor=#3a414a;strokeOpacity=100;dashed=1;fixDash=1;strokeWidth=0.8;rounded=0;startArrow=none;endArrow=open;exitX=-0.002;exitY=0.475;exitPerimeter=0;entryX=0.948;entryY=0.729;entryPerimeter=0;" edge="1" parent="WIyWlLk6GJQsqaUBKTNV-1" source="j4JM0gO3ZsuQMc5hAkjS-97" target="j4JM0gO3ZsuQMc5hAkjS-100">
            <mxGeometry width="100" height="100" relative="1" as="geometry">
              <Array as="points" />
            </mxGeometry>
          </mxCell>
        </UserObject>
        <mxCell id="j4JM0gO3ZsuQMc5hAkjS-126" value="&amp;lt;&amp;lt;Include&amp;gt;&amp;gt;" style="text;html=1;resizable=0;labelBackgroundColor=default;align=center;verticalAlign=middle;fontStyle=1;fontColor=#333333;fontSize=13.3;" vertex="1" parent="j4JM0gO3ZsuQMc5hAkjS-125">
          <mxGeometry x="-0.18611483779787452" relative="1" as="geometry" />
        </mxCell>
        <UserObject label="" lucidchartObjectId="rtb8BLVJzzra" id="j4JM0gO3ZsuQMc5hAkjS-127">
          <mxCell style="html=1;jettySize=18;whiteSpace=wrap;fontSize=13;strokeColor=#3a414a;strokeOpacity=100;dashed=1;fixDash=1;strokeWidth=0.8;rounded=0;startArrow=none;endArrow=open;exitX=0.178;exitY=0.888;exitPerimeter=0;entryX=1.003;entryY=0.5;entryPerimeter=0;" edge="1" parent="WIyWlLk6GJQsqaUBKTNV-1" source="j4JM0gO3ZsuQMc5hAkjS-97" target="j4JM0gO3ZsuQMc5hAkjS-99">
            <mxGeometry width="100" height="100" relative="1" as="geometry">
              <Array as="points" />
            </mxGeometry>
          </mxCell>
        </UserObject>
        <mxCell id="j4JM0gO3ZsuQMc5hAkjS-128" value="&amp;lt;&amp;lt;Include&amp;gt;&amp;gt;" style="text;html=1;resizable=0;labelBackgroundColor=default;align=center;verticalAlign=middle;fontStyle=1;fontColor=#333333;fontSize=13.3;" vertex="1" parent="j4JM0gO3ZsuQMc5hAkjS-127">
          <mxGeometry x="-0.1125776492706495" relative="1" as="geometry" />
        </mxCell>
        <UserObject label="Create new" lucidchartObjectId="SCb8bLOcmzCx" id="j4JM0gO3ZsuQMc5hAkjS-129">
          <mxCell style="html=1;overflow=block;blockSpacing=1;whiteSpace=wrap;ellipse;fontSize=13;spacing=3.8;strokeColor=#3a414a;strokeOpacity=100;rounded=1;absoluteArcSize=1;arcSize=9;strokeWidth=0.8;" vertex="1" parent="WIyWlLk6GJQsqaUBKTNV-1">
            <mxGeometry x="188" y="246" width="165" height="105" as="geometry" />
          </mxCell>
        </UserObject>
        <UserObject label="View all enrollment" lucidchartObjectId="wDb8d5ZHAHH7" id="j4JM0gO3ZsuQMc5hAkjS-130">
          <mxCell style="html=1;overflow=block;blockSpacing=1;whiteSpace=wrap;ellipse;fontSize=13;spacing=3.8;strokeColor=#3a414a;strokeOpacity=100;rounded=1;absoluteArcSize=1;arcSize=9;strokeWidth=0.8;" vertex="1" parent="WIyWlLk6GJQsqaUBKTNV-1">
            <mxGeometry x="188" y="675" width="165" height="105" as="geometry" />
          </mxCell>
        </UserObject>
        <UserObject label="Display all enrollment" lucidchartObjectId="oEb8eaK3BChd" id="j4JM0gO3ZsuQMc5hAkjS-131">
          <mxCell style="html=1;overflow=block;blockSpacing=1;whiteSpace=wrap;ellipse;fontSize=13;spacing=3.8;strokeColor=#3a414a;strokeOpacity=100;rounded=1;absoluteArcSize=1;arcSize=9;strokeWidth=0.8;" vertex="1" parent="WIyWlLk6GJQsqaUBKTNV-1">
            <mxGeometry x="465" y="675" width="165" height="105" as="geometry" />
          </mxCell>
        </UserObject>
        <UserObject label="" lucidchartObjectId="NEb8YcKlREL_" id="j4JM0gO3ZsuQMc5hAkjS-132">
          <mxCell style="html=1;jettySize=18;whiteSpace=wrap;fontSize=13;strokeColor=#3a414a;strokeOpacity=100;dashed=1;fixDash=1;strokeWidth=0.8;rounded=0;startArrow=none;endArrow=open;exitX=1.002;exitY=0.5;exitPerimeter=0;entryX=-0.002;entryY=0.5;entryPerimeter=0;" edge="1" parent="WIyWlLk6GJQsqaUBKTNV-1" source="j4JM0gO3ZsuQMc5hAkjS-130" target="j4JM0gO3ZsuQMc5hAkjS-131">
            <mxGeometry width="100" height="100" relative="1" as="geometry">
              <Array as="points" />
            </mxGeometry>
          </mxCell>
        </UserObject>
        <mxCell id="j4JM0gO3ZsuQMc5hAkjS-133" value="&amp;lt;&amp;lt;Include&amp;gt;&amp;gt;" style="text;html=1;resizable=0;labelBackgroundColor=default;align=center;verticalAlign=middle;fontStyle=1;fontColor=#333333;fontSize=13.3;" vertex="1" parent="j4JM0gO3ZsuQMc5hAkjS-132">
          <mxGeometry relative="1" as="geometry" />
        </mxCell>
        <UserObject label="Select perform tasks" lucidchartObjectId="EFb8_NY0V9x1" id="j4JM0gO3ZsuQMc5hAkjS-134">
          <mxCell style="html=1;overflow=block;blockSpacing=1;whiteSpace=wrap;ellipse;fontSize=13;spacing=0;strokeColor=#3a414a;strokeOpacity=100;rounded=1;absoluteArcSize=1;arcSize=9;strokeWidth=0.8;" vertex="1" parent="WIyWlLk6GJQsqaUBKTNV-1">
            <mxGeometry x="300" y="825" width="150" height="90" as="geometry" />
          </mxCell>
        </UserObject>
        <UserObject label="" lucidchartObjectId="7Fb8HaHSFhnt" id="j4JM0gO3ZsuQMc5hAkjS-135">
          <mxCell style="html=1;jettySize=18;whiteSpace=wrap;fontSize=13;strokeColor=#3a414a;strokeOpacity=100;dashed=1;fixDash=1;strokeWidth=0.8;rounded=0;startArrow=none;endArrow=open;exitX=0.5;exitY=1.004;exitPerimeter=0;entryX=0.5;entryY=-0.004;entryPerimeter=0;" edge="1" parent="WIyWlLk6GJQsqaUBKTNV-1" source="j4JM0gO3ZsuQMc5hAkjS-131" target="j4JM0gO3ZsuQMc5hAkjS-134">
            <mxGeometry width="100" height="100" relative="1" as="geometry">
              <Array as="points" />
            </mxGeometry>
          </mxCell>
        </UserObject>
        <mxCell id="j4JM0gO3ZsuQMc5hAkjS-136" value="&amp;lt;&amp;lt;Include&amp;gt;&amp;gt;" style="text;html=1;resizable=0;labelBackgroundColor=default;align=center;verticalAlign=middle;fontStyle=1;fontColor=#333333;fontSize=13.3;" vertex="1" parent="j4JM0gO3ZsuQMc5hAkjS-135">
          <mxGeometry relative="1" as="geometry" />
        </mxCell>
        <UserObject label="Select exit" lucidchartObjectId="FGb8ll7RfpEJ" id="j4JM0gO3ZsuQMc5hAkjS-137">
          <mxCell style="html=1;overflow=block;blockSpacing=1;whiteSpace=wrap;ellipse;fontSize=13;spacing=0;strokeColor=#3a414a;strokeOpacity=100;rounded=1;absoluteArcSize=1;arcSize=9;strokeWidth=0.8;" vertex="1" parent="WIyWlLk6GJQsqaUBKTNV-1">
            <mxGeometry x="750" y="675" width="150" height="90" as="geometry" />
          </mxCell>
        </UserObject>
        <UserObject label="" lucidchartObjectId="QGb8UY0dnj~G" id="j4JM0gO3ZsuQMc5hAkjS-138">
          <mxCell style="html=1;jettySize=18;whiteSpace=wrap;fontSize=13;strokeColor=#3a414a;strokeOpacity=100;dashed=1;fixDash=1;strokeWidth=0.8;rounded=0;startArrow=none;endArrow=open;exitX=1.002;exitY=0.5;exitPerimeter=0;entryX=-0.003;entryY=0.5;entryPerimeter=0;" edge="1" parent="WIyWlLk6GJQsqaUBKTNV-1" source="j4JM0gO3ZsuQMc5hAkjS-131" target="j4JM0gO3ZsuQMc5hAkjS-137">
            <mxGeometry width="100" height="100" relative="1" as="geometry">
              <Array as="points" />
            </mxGeometry>
          </mxCell>
        </UserObject>
        <mxCell id="j4JM0gO3ZsuQMc5hAkjS-139" value="&amp;lt;&amp;lt;Include&amp;gt;&amp;gt;" style="text;html=1;resizable=0;labelBackgroundColor=default;align=center;verticalAlign=middle;fontStyle=1;fontColor=#333333;fontSize=13.3;" vertex="1" parent="j4JM0gO3ZsuQMc5hAkjS-138">
          <mxGeometry relative="1" as="geometry" />
        </mxCell>
        <UserObject label="Display invalid choice" lucidchartObjectId="7Ib80XFGPlk5" id="j4JM0gO3ZsuQMc5hAkjS-140">
          <mxCell style="html=1;overflow=block;blockSpacing=1;whiteSpace=wrap;ellipse;fontSize=13;spacing=3.8;strokeColor=#3a414a;strokeOpacity=100;rounded=1;absoluteArcSize=1;arcSize=9;strokeWidth=0.8;" vertex="1" parent="WIyWlLk6GJQsqaUBKTNV-1">
            <mxGeometry x="580" y="810" width="120" height="60" as="geometry" />
          </mxCell>
        </UserObject>
        <UserObject label="" lucidchartObjectId="aJb82_LpkzpE" id="j4JM0gO3ZsuQMc5hAkjS-141">
          <mxCell style="html=1;jettySize=18;whiteSpace=wrap;fontSize=13;strokeColor=#3a414a;strokeOpacity=100;dashed=1;fixDash=1;strokeWidth=0.8;rounded=0;startArrow=none;endArrow=open;exitX=0.069;exitY=0.762;exitPerimeter=0;entryX=0.946;entryY=0.268;entryPerimeter=0;" edge="1" parent="WIyWlLk6GJQsqaUBKTNV-1" source="j4JM0gO3ZsuQMc5hAkjS-140" target="j4JM0gO3ZsuQMc5hAkjS-134">
            <mxGeometry width="100" height="100" relative="1" as="geometry">
              <Array as="points" />
            </mxGeometry>
          </mxCell>
        </UserObject>
        <mxCell id="j4JM0gO3ZsuQMc5hAkjS-142" value="&amp;lt;&amp;lt;Extend&amp;gt;&amp;gt;" style="text;html=1;resizable=0;labelBackgroundColor=default;align=center;verticalAlign=middle;fontStyle=1;fontColor=#333333;fontSize=13.3;" vertex="1" parent="j4JM0gO3ZsuQMc5hAkjS-141">
          <mxGeometry x="-0.12204805579849076" relative="1" as="geometry" />
        </mxCell>
        <UserObject label="" lucidchartObjectId="mJb8IXf~KBaA" id="j4JM0gO3ZsuQMc5hAkjS-143">
          <mxCell style="html=1;jettySize=18;whiteSpace=wrap;fontSize=13;strokeColor=#3a414a;strokeOpacity=100;dashed=1;fixDash=1;strokeWidth=0.8;rounded=0;startArrow=none;endArrow=open;exitX=0.798;exitY=0.093;exitPerimeter=0;entryX=0.299;entryY=0.962;entryPerimeter=0;" edge="1" parent="WIyWlLk6GJQsqaUBKTNV-1" source="j4JM0gO3ZsuQMc5hAkjS-140" target="j4JM0gO3ZsuQMc5hAkjS-137">
            <mxGeometry width="100" height="100" relative="1" as="geometry">
              <Array as="points" />
            </mxGeometry>
          </mxCell>
        </UserObject>
        <mxCell id="j4JM0gO3ZsuQMc5hAkjS-144" value="&amp;lt;&amp;lt;Extend&amp;gt;&amp;gt;" style="text;html=1;resizable=0;labelBackgroundColor=default;align=center;verticalAlign=middle;fontStyle=1;fontColor=#333333;fontSize=13.3;" vertex="1" parent="j4JM0gO3ZsuQMc5hAkjS-143">
          <mxGeometry relative="1" as="geometry" />
        </mxCell>
        <UserObject label="Drop course" lucidchartObjectId="MKb8qUOhh~k1" id="j4JM0gO3ZsuQMc5hAkjS-145">
          <mxCell style="html=1;overflow=block;blockSpacing=1;whiteSpace=wrap;ellipse;fontSize=13;spacing=3.8;strokeColor=#3a414a;strokeOpacity=100;rounded=1;absoluteArcSize=1;arcSize=9;strokeWidth=0.8;" vertex="1" parent="WIyWlLk6GJQsqaUBKTNV-1">
            <mxGeometry x="405" y="975" width="120" height="90" as="geometry" />
          </mxCell>
        </UserObject>
        <UserObject label="Add enrollment" lucidchartObjectId="ALb8cT1fnPmX" id="j4JM0gO3ZsuQMc5hAkjS-146">
          <mxCell style="html=1;overflow=block;blockSpacing=1;whiteSpace=wrap;ellipse;fontSize=13;spacing=3.8;strokeColor=#3a414a;strokeOpacity=100;rounded=1;absoluteArcSize=1;arcSize=9;strokeWidth=0.8;" vertex="1" parent="WIyWlLk6GJQsqaUBKTNV-1">
            <mxGeometry x="225" y="975" width="120" height="90" as="geometry" />
          </mxCell>
        </UserObject>
        <UserObject label="" lucidchartObjectId="XLb8WKQyprOz" id="j4JM0gO3ZsuQMc5hAkjS-147">
          <mxCell style="html=1;jettySize=18;whiteSpace=wrap;fontSize=13;strokeColor=#3a414a;strokeOpacity=100;strokeWidth=0.8;rounded=1;arcSize=12;edgeStyle=orthogonalEdgeStyle;startArrow=none;endArrow=block;endFill=0;endSize=12;exitX=0.5;exitY=-0.004;exitPerimeter=0;entryX=0.5;entryY=1.004;entryPerimeter=0;" edge="1" parent="WIyWlLk6GJQsqaUBKTNV-1" source="j4JM0gO3ZsuQMc5hAkjS-146" target="j4JM0gO3ZsuQMc5hAkjS-134">
            <mxGeometry width="100" height="100" relative="1" as="geometry">
              <Array as="points" />
            </mxGeometry>
          </mxCell>
        </UserObject>
        <UserObject label="" lucidchartObjectId="2Lb8IPs-CWP9" id="j4JM0gO3ZsuQMc5hAkjS-148">
          <mxCell style="html=1;jettySize=18;whiteSpace=wrap;fontSize=13;strokeColor=#3a414a;strokeOpacity=100;strokeWidth=0.8;rounded=1;arcSize=12;edgeStyle=orthogonalEdgeStyle;startArrow=none;endArrow=block;endFill=0;endSize=12;exitX=0.5;exitY=-0.004;exitPerimeter=0;entryX=0.5;entryY=1.004;entryPerimeter=0;" edge="1" parent="WIyWlLk6GJQsqaUBKTNV-1" source="j4JM0gO3ZsuQMc5hAkjS-145" target="j4JM0gO3ZsuQMc5hAkjS-134">
            <mxGeometry width="100" height="100" relative="1" as="geometry">
              <Array as="points" />
            </mxGeometry>
          </mxCell>
        </UserObject>
        <UserObject label="" lucidchartObjectId="qQb8BGeMHkN9" id="j4JM0gO3ZsuQMc5hAkjS-149">
          <mxCell style="html=1;jettySize=18;whiteSpace=wrap;fontSize=13;strokeColor=#3a414a;strokeOpacity=100;dashed=1;fixDash=1;strokeWidth=0.8;rounded=0;startArrow=none;endArrow=open;exitX=0.5;exitY=1.004;exitPerimeter=0;entryX=0.5;entryY=-0.004;entryPerimeter=0;" edge="1" parent="WIyWlLk6GJQsqaUBKTNV-1" source="j4JM0gO3ZsuQMc5hAkjS-146" target="j4JM0gO3ZsuQMc5hAkjS-153">
            <mxGeometry width="100" height="100" relative="1" as="geometry">
              <Array as="points" />
            </mxGeometry>
          </mxCell>
        </UserObject>
        <mxCell id="j4JM0gO3ZsuQMc5hAkjS-150" value="&amp;lt;&amp;lt;Include&amp;gt;&amp;gt;" style="text;html=1;resizable=0;labelBackgroundColor=default;align=center;verticalAlign=middle;fontStyle=1;fontColor=#333333;fontSize=13.3;" vertex="1" parent="j4JM0gO3ZsuQMc5hAkjS-149">
          <mxGeometry relative="1" as="geometry" />
        </mxCell>
        <UserObject label="" lucidchartObjectId="MRb8K9akw81G" id="j4JM0gO3ZsuQMc5hAkjS-151">
          <mxCell style="html=1;jettySize=18;whiteSpace=wrap;fontSize=13;strokeColor=#3a414a;strokeOpacity=100;dashed=1;fixDash=1;strokeWidth=0.8;rounded=0;startArrow=none;endArrow=open;exitX=0.5;exitY=1.004;exitPerimeter=0;entryX=0.5;entryY=-0.004;entryPerimeter=0;" edge="1" parent="WIyWlLk6GJQsqaUBKTNV-1" source="j4JM0gO3ZsuQMc5hAkjS-145" target="j4JM0gO3ZsuQMc5hAkjS-153">
            <mxGeometry width="100" height="100" relative="1" as="geometry">
              <Array as="points" />
            </mxGeometry>
          </mxCell>
        </UserObject>
        <mxCell id="j4JM0gO3ZsuQMc5hAkjS-152" value="&amp;lt;&amp;lt;Include&amp;gt;&amp;gt;" style="text;html=1;resizable=0;labelBackgroundColor=default;align=center;verticalAlign=middle;fontStyle=1;fontColor=#333333;fontSize=13.3;" vertex="1" parent="j4JM0gO3ZsuQMc5hAkjS-151">
          <mxGeometry relative="1" as="geometry" />
        </mxCell>
        <UserObject label="Input semester" lucidchartObjectId="~Ub8aFgRyCHm" id="j4JM0gO3ZsuQMc5hAkjS-153">
          <mxCell style="html=1;overflow=block;blockSpacing=1;whiteSpace=wrap;ellipse;fontSize=13;spacing=3.8;strokeColor=#3a414a;strokeOpacity=100;rounded=1;absoluteArcSize=1;arcSize=9;strokeWidth=0.8;" vertex="1" parent="WIyWlLk6GJQsqaUBKTNV-1">
            <mxGeometry x="315" y="1125" width="120" height="90" as="geometry" />
          </mxCell>
        </UserObject>
        <UserObject label="Display semester is not exist" lucidchartObjectId="iVb8tdqWyqkG" id="j4JM0gO3ZsuQMc5hAkjS-154">
          <mxCell style="html=1;overflow=block;blockSpacing=1;whiteSpace=wrap;ellipse;fontSize=13;spacing=3.8;strokeColor=#3a414a;strokeOpacity=100;rounded=1;absoluteArcSize=1;arcSize=9;strokeWidth=0.8;" vertex="1" parent="WIyWlLk6GJQsqaUBKTNV-1">
            <mxGeometry x="120" y="1200" width="120" height="90" as="geometry" />
          </mxCell>
        </UserObject>
        <UserObject label="Check if semester exist" lucidchartObjectId="mVb8WjVg645l" id="j4JM0gO3ZsuQMc5hAkjS-155">
          <mxCell style="html=1;overflow=block;blockSpacing=1;whiteSpace=wrap;ellipse;fontSize=13;spacing=0;strokeColor=#3a414a;strokeOpacity=100;rounded=1;absoluteArcSize=1;arcSize=9;strokeWidth=0.8;" vertex="1" parent="WIyWlLk6GJQsqaUBKTNV-1">
            <mxGeometry x="300" y="1275" width="150" height="120" as="geometry" />
          </mxCell>
        </UserObject>
        <UserObject label="" lucidchartObjectId="5Vb85NPMmPPH" id="j4JM0gO3ZsuQMc5hAkjS-156">
          <mxCell style="html=1;jettySize=18;whiteSpace=wrap;fontSize=13;strokeColor=#3a414a;strokeOpacity=100;dashed=1;fixDash=1;strokeWidth=0.8;rounded=0;startArrow=none;endArrow=open;exitX=1.003;exitY=0.5;exitPerimeter=0;entryX=-0.003;entryY=0.5;entryPerimeter=0;" edge="1" parent="WIyWlLk6GJQsqaUBKTNV-1" source="j4JM0gO3ZsuQMc5hAkjS-154" target="j4JM0gO3ZsuQMc5hAkjS-155">
            <mxGeometry width="100" height="100" relative="1" as="geometry">
              <Array as="points" />
            </mxGeometry>
          </mxCell>
        </UserObject>
        <mxCell id="j4JM0gO3ZsuQMc5hAkjS-157" value="&amp;lt;&amp;lt;Extend&amp;gt;&amp;gt;" style="text;html=1;resizable=0;labelBackgroundColor=default;align=center;verticalAlign=middle;fontStyle=1;fontColor=#333333;fontSize=13.3;" vertex="1" parent="j4JM0gO3ZsuQMc5hAkjS-156">
          <mxGeometry relative="1" as="geometry" />
        </mxCell>
        <UserObject label="" lucidchartObjectId="tWb81G1GZtXc" id="j4JM0gO3ZsuQMc5hAkjS-158">
          <mxCell style="html=1;jettySize=18;whiteSpace=wrap;fontSize=13;strokeColor=#3a414a;strokeOpacity=100;dashed=1;fixDash=1;strokeWidth=0.8;rounded=0;startArrow=none;endArrow=open;exitX=0.5;exitY=1.004;exitPerimeter=0;entryX=0.5;entryY=-0.003;entryPerimeter=0;" edge="1" parent="WIyWlLk6GJQsqaUBKTNV-1" source="j4JM0gO3ZsuQMc5hAkjS-153" target="j4JM0gO3ZsuQMc5hAkjS-155">
            <mxGeometry width="100" height="100" relative="1" as="geometry">
              <Array as="points" />
            </mxGeometry>
          </mxCell>
        </UserObject>
        <mxCell id="j4JM0gO3ZsuQMc5hAkjS-159" value="&amp;lt;&amp;lt;Include&amp;gt;&amp;gt;" style="text;html=1;resizable=0;labelBackgroundColor=default;align=center;verticalAlign=middle;fontStyle=1;fontColor=#333333;fontSize=13.3;" vertex="1" parent="j4JM0gO3ZsuQMc5hAkjS-158">
          <mxGeometry relative="1" as="geometry" />
        </mxCell>
        <mxCell id="j4JM0gO3ZsuQMc5hAkjS-185" value="" style="edgeStyle=none;rounded=0;orthogonalLoop=1;jettySize=auto;html=1;dashed=1;endArrow=open;endFill=0;" edge="1" parent="WIyWlLk6GJQsqaUBKTNV-1" source="j4JM0gO3ZsuQMc5hAkjS-160" target="j4JM0gO3ZsuQMc5hAkjS-168">
          <mxGeometry relative="1" as="geometry" />
        </mxCell>
        <UserObject label="Display valid semester" lucidchartObjectId="3Xb82bU-oSFI" id="j4JM0gO3ZsuQMc5hAkjS-160">
          <mxCell style="html=1;overflow=block;blockSpacing=1;whiteSpace=wrap;ellipse;fontSize=13;spacing=3.8;strokeColor=#3a414a;strokeOpacity=100;rounded=1;absoluteArcSize=1;arcSize=9;strokeWidth=0.8;" vertex="1" parent="WIyWlLk6GJQsqaUBKTNV-1">
            <mxGeometry x="570" y="1290" width="120" height="90" as="geometry" />
          </mxCell>
        </UserObject>
        <UserObject label="" lucidchartObjectId="bYb8xyXC3pWu" id="j4JM0gO3ZsuQMc5hAkjS-161">
          <mxCell style="html=1;jettySize=18;whiteSpace=wrap;fontSize=13;strokeColor=#3a414a;strokeOpacity=100;dashed=1;fixDash=1;strokeWidth=0.8;rounded=0;startArrow=none;endArrow=open;exitX=1.003;exitY=0.5;exitPerimeter=0;entryX=-0.003;entryY=0.5;entryPerimeter=0;" edge="1" parent="WIyWlLk6GJQsqaUBKTNV-1" source="j4JM0gO3ZsuQMc5hAkjS-155" target="j4JM0gO3ZsuQMc5hAkjS-160">
            <mxGeometry width="100" height="100" relative="1" as="geometry">
              <Array as="points" />
            </mxGeometry>
          </mxCell>
        </UserObject>
        <mxCell id="j4JM0gO3ZsuQMc5hAkjS-162" value="&amp;lt;&amp;lt;Include&amp;gt;&amp;gt;" style="text;html=1;resizable=0;labelBackgroundColor=default;align=center;verticalAlign=middle;fontStyle=1;fontColor=#333333;fontSize=13.3;" vertex="1" parent="j4JM0gO3ZsuQMc5hAkjS-161">
          <mxGeometry x="-0.14609110141610948" relative="1" as="geometry" />
        </mxCell>
        <UserObject label="Select exit" lucidchartObjectId="_0b8lDhi4JuW" id="j4JM0gO3ZsuQMc5hAkjS-163">
          <mxCell style="html=1;overflow=block;blockSpacing=1;whiteSpace=wrap;ellipse;fontSize=13;spacing=3.8;strokeColor=#3a414a;strokeOpacity=100;rounded=1;absoluteArcSize=1;arcSize=9;strokeWidth=0.8;" vertex="1" parent="WIyWlLk6GJQsqaUBKTNV-1">
            <mxGeometry x="570" y="1125" width="120" height="90" as="geometry" />
          </mxCell>
        </UserObject>
        <UserObject label="" lucidchartObjectId="l1b8Ks-75G7R" id="j4JM0gO3ZsuQMc5hAkjS-164">
          <mxCell style="html=1;jettySize=18;whiteSpace=wrap;fontSize=13;strokeColor=#3a414a;strokeOpacity=100;dashed=1;fixDash=1;strokeWidth=0.8;rounded=0;startArrow=none;endArrow=open;exitX=1.003;exitY=0.5;exitPerimeter=0;entryX=-0.003;entryY=0.5;entryPerimeter=0;" edge="1" parent="WIyWlLk6GJQsqaUBKTNV-1" source="j4JM0gO3ZsuQMc5hAkjS-153" target="j4JM0gO3ZsuQMc5hAkjS-163">
            <mxGeometry width="100" height="100" relative="1" as="geometry">
              <Array as="points" />
            </mxGeometry>
          </mxCell>
        </UserObject>
        <mxCell id="j4JM0gO3ZsuQMc5hAkjS-165" value="&amp;lt;&amp;lt;Include&amp;gt;&amp;gt;" style="text;html=1;resizable=0;labelBackgroundColor=default;align=center;verticalAlign=middle;fontStyle=1;fontColor=#333333;fontSize=13.3;" vertex="1" parent="j4JM0gO3ZsuQMc5hAkjS-164">
          <mxGeometry relative="1" as="geometry" />
        </mxCell>
        <UserObject label="" lucidchartObjectId="X1b8XJU7wJw~" id="j4JM0gO3ZsuQMc5hAkjS-166">
          <mxCell style="html=1;jettySize=18;whiteSpace=wrap;fontSize=13;strokeColor=#3a414a;strokeOpacity=100;dashed=1;fixDash=1;strokeWidth=0.8;rounded=0;startArrow=none;endArrow=open;exitX=0.5;exitY=-0.004;exitPerimeter=0;entryX=0.5;entryY=1.004;entryPerimeter=0;" edge="1" parent="WIyWlLk6GJQsqaUBKTNV-1" source="j4JM0gO3ZsuQMc5hAkjS-160" target="j4JM0gO3ZsuQMc5hAkjS-163">
            <mxGeometry width="100" height="100" relative="1" as="geometry">
              <Array as="points" />
            </mxGeometry>
          </mxCell>
        </UserObject>
        <mxCell id="j4JM0gO3ZsuQMc5hAkjS-167" value="&amp;lt;&amp;lt;Include&amp;gt;&amp;gt;" style="text;html=1;resizable=0;labelBackgroundColor=default;align=center;verticalAlign=middle;fontStyle=1;fontColor=#333333;fontSize=13.3;" vertex="1" parent="j4JM0gO3ZsuQMc5hAkjS-166">
          <mxGeometry relative="1" as="geometry" />
        </mxCell>
        <UserObject label="Input student ID" lucidchartObjectId="G2b8h_VOFrGW" id="j4JM0gO3ZsuQMc5hAkjS-168">
          <mxCell style="html=1;overflow=block;blockSpacing=1;whiteSpace=wrap;ellipse;fontSize=13;spacing=3.8;strokeColor=#3a414a;strokeOpacity=100;rounded=1;absoluteArcSize=1;arcSize=9;strokeWidth=0.8;" vertex="1" parent="WIyWlLk6GJQsqaUBKTNV-1">
            <mxGeometry x="570" y="1425" width="120" height="90" as="geometry" />
          </mxCell>
        </UserObject>
        <UserObject label="" lucidchartObjectId="_3b8UhAphatW" id="j4JM0gO3ZsuQMc5hAkjS-169">
          <mxCell style="html=1;jettySize=18;whiteSpace=wrap;fontSize=13;strokeColor=#3a414a;strokeOpacity=100;dashed=1;fixDash=1;strokeWidth=0.8;rounded=0;startArrow=none;endArrow=open;exitX=0.5;exitY=1.004;exitPerimeter=0;entryX=0.5;entryY=-0.004;entryPerimeter=0;" edge="1" parent="WIyWlLk6GJQsqaUBKTNV-1" source="j4JM0gO3ZsuQMc5hAkjS-160" target="j4JM0gO3ZsuQMc5hAkjS-168">
            <mxGeometry width="100" height="100" relative="1" as="geometry">
              <Array as="points" />
            </mxGeometry>
          </mxCell>
        </UserObject>
        <mxCell id="j4JM0gO3ZsuQMc5hAkjS-170" value="&amp;lt;&amp;lt;Include&amp;gt;&amp;gt;" style="text;html=1;resizable=0;labelBackgroundColor=default;align=center;verticalAlign=middle;fontStyle=1;fontColor=#333333;fontSize=13.3;" vertex="1" parent="j4JM0gO3ZsuQMc5hAkjS-169">
          <mxGeometry relative="1" as="geometry" />
        </mxCell>
        <UserObject label="Check if student exist" lucidchartObjectId="X4b8GpO_1fZh" id="j4JM0gO3ZsuQMc5hAkjS-171">
          <mxCell style="html=1;overflow=block;blockSpacing=1;whiteSpace=wrap;ellipse;fontSize=13;spacing=0;strokeColor=#3a414a;strokeOpacity=100;rounded=1;absoluteArcSize=1;arcSize=9;strokeWidth=0.8;" vertex="1" parent="WIyWlLk6GJQsqaUBKTNV-1">
            <mxGeometry x="555" y="1560" width="150" height="120" as="geometry" />
          </mxCell>
        </UserObject>
        <UserObject label="" lucidchartObjectId="h5b8EaZICANA" id="j4JM0gO3ZsuQMc5hAkjS-172">
          <mxCell style="html=1;jettySize=18;whiteSpace=wrap;fontSize=13;strokeColor=#3a414a;strokeOpacity=100;dashed=1;fixDash=1;strokeWidth=0.8;rounded=0;startArrow=none;endArrow=open;exitX=0.5;exitY=1.004;exitPerimeter=0;entryX=0.5;entryY=-0.003;entryPerimeter=0;" edge="1" parent="WIyWlLk6GJQsqaUBKTNV-1" source="j4JM0gO3ZsuQMc5hAkjS-168" target="j4JM0gO3ZsuQMc5hAkjS-171">
            <mxGeometry width="100" height="100" relative="1" as="geometry">
              <Array as="points" />
            </mxGeometry>
          </mxCell>
        </UserObject>
        <mxCell id="j4JM0gO3ZsuQMc5hAkjS-173" value="&amp;lt;&amp;lt;Include&amp;gt;&amp;gt;" style="text;html=1;resizable=0;labelBackgroundColor=default;align=center;verticalAlign=middle;fontStyle=1;fontColor=#333333;fontSize=13.3;" vertex="1" parent="j4JM0gO3ZsuQMc5hAkjS-172">
          <mxGeometry x="-0.15968315903658348" relative="1" as="geometry" />
        </mxCell>
        <UserObject label="Display student is not exist" lucidchartObjectId="L5b8oFwx1gWe" id="j4JM0gO3ZsuQMc5hAkjS-174">
          <mxCell style="html=1;overflow=block;blockSpacing=1;whiteSpace=wrap;ellipse;fontSize=13;spacing=3.8;strokeColor=#3a414a;strokeOpacity=100;rounded=1;absoluteArcSize=1;arcSize=9;strokeWidth=0.8;" vertex="1" parent="WIyWlLk6GJQsqaUBKTNV-1">
            <mxGeometry x="330" y="1500" width="120" height="90" as="geometry" />
          </mxCell>
        </UserObject>
        <UserObject label="" lucidchartObjectId="L5b8UTUakp6x" id="j4JM0gO3ZsuQMc5hAkjS-175">
          <mxCell style="html=1;jettySize=18;whiteSpace=wrap;fontSize=13;strokeColor=#3a414a;strokeOpacity=100;dashed=1;fixDash=1;strokeWidth=0.8;rounded=0;startArrow=none;endArrow=open;exitX=1.003;exitY=0.5;exitPerimeter=0;entryX=-0.003;entryY=0.5;entryPerimeter=0;" edge="1" parent="WIyWlLk6GJQsqaUBKTNV-1" source="j4JM0gO3ZsuQMc5hAkjS-174" target="j4JM0gO3ZsuQMc5hAkjS-171">
            <mxGeometry width="100" height="100" relative="1" as="geometry">
              <Array as="points" />
            </mxGeometry>
          </mxCell>
        </UserObject>
        <mxCell id="j4JM0gO3ZsuQMc5hAkjS-176" value="&amp;lt;&amp;lt;Extend&amp;gt;&amp;gt;" style="text;html=1;resizable=0;labelBackgroundColor=default;align=center;verticalAlign=middle;fontStyle=1;fontColor=#333333;fontSize=13.3;" vertex="1" parent="j4JM0gO3ZsuQMc5hAkjS-175">
          <mxGeometry relative="1" as="geometry" />
        </mxCell>
        <mxCell id="j4JM0gO3ZsuQMc5hAkjS-183" style="edgeStyle=none;rounded=0;orthogonalLoop=1;jettySize=auto;html=1;entryX=0.5;entryY=1;entryDx=0;entryDy=0;dashed=1;endArrow=open;endFill=0;" edge="1" parent="WIyWlLk6GJQsqaUBKTNV-1" source="j4JM0gO3ZsuQMc5hAkjS-177" target="j4JM0gO3ZsuQMc5hAkjS-180">
          <mxGeometry relative="1" as="geometry" />
        </mxCell>
        <mxCell id="j4JM0gO3ZsuQMc5hAkjS-184" value="&amp;lt;&amp;lt;Include&amp;gt;&amp;gt;" style="edgeLabel;html=1;align=center;verticalAlign=middle;resizable=0;points=[];" vertex="1" connectable="0" parent="j4JM0gO3ZsuQMc5hAkjS-183">
          <mxGeometry x="0.0333" relative="1" as="geometry">
            <mxPoint as="offset" />
          </mxGeometry>
        </mxCell>
        <UserObject label="Display valid student" lucidchartObjectId="75b85DZoOAz7" id="j4JM0gO3ZsuQMc5hAkjS-177">
          <mxCell style="html=1;overflow=block;blockSpacing=1;whiteSpace=wrap;ellipse;fontSize=13;spacing=3.8;strokeColor=#3a414a;strokeOpacity=100;rounded=1;absoluteArcSize=1;arcSize=9;strokeWidth=0.8;" vertex="1" parent="WIyWlLk6GJQsqaUBKTNV-1">
            <mxGeometry x="810" y="1560" width="120" height="90" as="geometry" />
          </mxCell>
        </UserObject>
        <UserObject label="" lucidchartObjectId="h6b8DXPas1rn" id="j4JM0gO3ZsuQMc5hAkjS-178">
          <mxCell style="html=1;jettySize=18;whiteSpace=wrap;fontSize=13;strokeColor=#3a414a;strokeOpacity=100;dashed=1;fixDash=1;strokeWidth=0.8;rounded=0;startArrow=none;endArrow=open;exitX=1.003;exitY=0.5;exitPerimeter=0;entryX=-0.003;entryY=0.5;entryPerimeter=0;" edge="1" parent="WIyWlLk6GJQsqaUBKTNV-1" source="j4JM0gO3ZsuQMc5hAkjS-171" target="j4JM0gO3ZsuQMc5hAkjS-177">
            <mxGeometry width="100" height="100" relative="1" as="geometry">
              <Array as="points" />
            </mxGeometry>
          </mxCell>
        </UserObject>
        <mxCell id="j4JM0gO3ZsuQMc5hAkjS-179" value="&amp;lt;&amp;lt;Include&amp;gt;&amp;gt;" style="text;html=1;resizable=0;labelBackgroundColor=default;align=center;verticalAlign=middle;fontStyle=1;fontColor=#333333;fontSize=13.3;" vertex="1" parent="j4JM0gO3ZsuQMc5hAkjS-178">
          <mxGeometry x="-0.19976131042641299" relative="1" as="geometry" />
        </mxCell>
        <mxCell id="j4JM0gO3ZsuQMc5hAkjS-181" style="rounded=0;orthogonalLoop=1;jettySize=auto;html=1;entryX=1;entryY=1;entryDx=0;entryDy=0;dashed=1;endArrow=open;endFill=0;" edge="1" parent="WIyWlLk6GJQsqaUBKTNV-1" source="j4JM0gO3ZsuQMc5hAkjS-180" target="j4JM0gO3ZsuQMc5hAkjS-163">
          <mxGeometry relative="1" as="geometry" />
        </mxCell>
        <mxCell id="j4JM0gO3ZsuQMc5hAkjS-182" value="&amp;lt;&amp;lt;Include&amp;gt;&amp;gt;" style="edgeLabel;html=1;align=center;verticalAlign=middle;resizable=0;points=[];fontSize=13.3;" vertex="1" connectable="0" parent="j4JM0gO3ZsuQMc5hAkjS-181">
          <mxGeometry x="0.0027" y="2" relative="1" as="geometry">
            <mxPoint as="offset" />
          </mxGeometry>
        </mxCell>
        <mxCell id="j4JM0gO3ZsuQMc5hAkjS-187" style="edgeStyle=none;rounded=0;orthogonalLoop=1;jettySize=auto;html=1;entryX=0.5;entryY=1;entryDx=0;entryDy=0;dashed=1;fontSize=13.3;endArrow=open;endFill=0;" edge="1" parent="WIyWlLk6GJQsqaUBKTNV-1" source="j4JM0gO3ZsuQMc5hAkjS-180" target="j4JM0gO3ZsuQMc5hAkjS-186">
          <mxGeometry relative="1" as="geometry" />
        </mxCell>
        <mxCell id="j4JM0gO3ZsuQMc5hAkjS-188" value="&amp;lt;&amp;lt;Include&amp;gt;&amp;gt;" style="edgeLabel;html=1;align=center;verticalAlign=middle;resizable=0;points=[];fontSize=13.3;" vertex="1" connectable="0" parent="j4JM0gO3ZsuQMc5hAkjS-187">
          <mxGeometry x="-0.1333" y="1" relative="1" as="geometry">
            <mxPoint as="offset" />
          </mxGeometry>
        </mxCell>
        <UserObject label="Input Course ID" lucidchartObjectId="75b85DZoOAz7" id="j4JM0gO3ZsuQMc5hAkjS-180">
          <mxCell style="html=1;overflow=block;blockSpacing=1;whiteSpace=wrap;ellipse;fontSize=13;spacing=3.8;strokeColor=#3a414a;strokeOpacity=100;rounded=1;absoluteArcSize=1;arcSize=9;strokeWidth=0.8;" vertex="1" parent="WIyWlLk6GJQsqaUBKTNV-1">
            <mxGeometry x="810" y="1425" width="120" height="90" as="geometry" />
          </mxCell>
        </UserObject>
        <mxCell id="j4JM0gO3ZsuQMc5hAkjS-193" style="edgeStyle=none;rounded=0;orthogonalLoop=1;jettySize=auto;html=1;exitX=0.5;exitY=0;exitDx=0;exitDy=0;entryX=0.5;entryY=1;entryDx=0;entryDy=0;dashed=1;fontSize=13.3;endArrow=open;endFill=0;" edge="1" parent="WIyWlLk6GJQsqaUBKTNV-1" source="j4JM0gO3ZsuQMc5hAkjS-186" target="j4JM0gO3ZsuQMc5hAkjS-192">
          <mxGeometry relative="1" as="geometry" />
        </mxCell>
        <mxCell id="j4JM0gO3ZsuQMc5hAkjS-194" value="&amp;lt;&amp;lt;Include&amp;gt;&amp;gt;" style="edgeLabel;html=1;align=center;verticalAlign=middle;resizable=0;points=[];fontSize=13.3;" vertex="1" connectable="0" parent="j4JM0gO3ZsuQMc5hAkjS-193">
          <mxGeometry x="-0.1273" y="-1" relative="1" as="geometry">
            <mxPoint as="offset" />
          </mxGeometry>
        </mxCell>
        <UserObject label="Check course exist" lucidchartObjectId="75b85DZoOAz7" id="j4JM0gO3ZsuQMc5hAkjS-186">
          <mxCell style="html=1;overflow=block;blockSpacing=1;whiteSpace=wrap;ellipse;fontSize=13;spacing=3.8;strokeColor=#3a414a;strokeOpacity=100;rounded=1;absoluteArcSize=1;arcSize=9;strokeWidth=0.8;" vertex="1" parent="WIyWlLk6GJQsqaUBKTNV-1">
            <mxGeometry x="810" y="1275" width="120" height="90" as="geometry" />
          </mxCell>
        </UserObject>
        <UserObject label="Display course is not exist" lucidchartObjectId="L5b8oFwx1gWe" id="j4JM0gO3ZsuQMc5hAkjS-189">
          <mxCell style="html=1;overflow=block;blockSpacing=1;whiteSpace=wrap;ellipse;fontSize=13;spacing=3.8;strokeColor=#3a414a;strokeOpacity=100;rounded=1;absoluteArcSize=1;arcSize=9;strokeWidth=0.8;" vertex="1" parent="WIyWlLk6GJQsqaUBKTNV-1">
            <mxGeometry x="990" y="1410" width="120" height="90" as="geometry" />
          </mxCell>
        </UserObject>
        <UserObject label="" lucidchartObjectId="L5b8UTUakp6x" id="j4JM0gO3ZsuQMc5hAkjS-190">
          <mxCell style="html=1;jettySize=18;whiteSpace=wrap;fontSize=13;strokeColor=#3a414a;strokeOpacity=100;dashed=1;fixDash=1;strokeWidth=0.8;rounded=0;startArrow=none;endArrow=open;exitX=0;exitY=0.5;entryX=1;entryY=0.5;entryDx=0;entryDy=0;exitDx=0;exitDy=0;" edge="1" parent="WIyWlLk6GJQsqaUBKTNV-1" source="j4JM0gO3ZsuQMc5hAkjS-189" target="j4JM0gO3ZsuQMc5hAkjS-186">
            <mxGeometry width="100" height="100" relative="1" as="geometry">
              <Array as="points" />
              <mxPoint x="1214.55" y="1440" as="targetPoint" />
            </mxGeometry>
          </mxCell>
        </UserObject>
        <mxCell id="j4JM0gO3ZsuQMc5hAkjS-191" value="&amp;lt;&amp;lt;Extend&amp;gt;&amp;gt;" style="text;html=1;resizable=0;labelBackgroundColor=default;align=center;verticalAlign=middle;fontStyle=1;fontColor=#333333;fontSize=13.3;" vertex="1" parent="j4JM0gO3ZsuQMc5hAkjS-190">
          <mxGeometry relative="1" as="geometry" />
        </mxCell>
        <mxCell id="j4JM0gO3ZsuQMc5hAkjS-197" style="edgeStyle=none;rounded=0;orthogonalLoop=1;jettySize=auto;html=1;exitX=0.5;exitY=0;exitDx=0;exitDy=0;entryX=0.5;entryY=1;entryDx=0;entryDy=0;dashed=1;fontSize=13.3;endArrow=open;endFill=0;" edge="1" parent="WIyWlLk6GJQsqaUBKTNV-1" source="j4JM0gO3ZsuQMc5hAkjS-192" target="j4JM0gO3ZsuQMc5hAkjS-196">
          <mxGeometry relative="1" as="geometry" />
        </mxCell>
        <mxCell id="j4JM0gO3ZsuQMc5hAkjS-198" value="&amp;lt;&amp;lt;Include&amp;gt;&amp;gt;" style="edgeLabel;html=1;align=center;verticalAlign=middle;resizable=0;points=[];fontSize=13.3;" vertex="1" connectable="0" parent="j4JM0gO3ZsuQMc5hAkjS-197">
          <mxGeometry x="-0.6" relative="1" as="geometry">
            <mxPoint y="-36" as="offset" />
          </mxGeometry>
        </mxCell>
        <mxCell id="j4JM0gO3ZsuQMc5hAkjS-209" value="&amp;lt;&amp;lt;Include&amp;gt;&amp;gt;" style="edgeStyle=none;rounded=0;orthogonalLoop=1;jettySize=auto;html=1;exitX=0;exitY=0;exitDx=0;exitDy=0;entryX=1;entryY=1;entryDx=0;entryDy=0;dashed=1;fontSize=13.3;endArrow=open;endFill=0;" edge="1" parent="WIyWlLk6GJQsqaUBKTNV-1" source="j4JM0gO3ZsuQMc5hAkjS-192" target="j4JM0gO3ZsuQMc5hAkjS-208">
          <mxGeometry relative="1" as="geometry" />
        </mxCell>
        <UserObject label="Check if enrollment exist" lucidchartObjectId="L5b8oFwx1gWe" id="j4JM0gO3ZsuQMc5hAkjS-192">
          <mxCell style="html=1;overflow=block;blockSpacing=1;whiteSpace=wrap;ellipse;fontSize=13;spacing=3.8;strokeColor=#3a414a;strokeOpacity=100;rounded=1;absoluteArcSize=1;arcSize=9;strokeWidth=0.8;" vertex="1" parent="WIyWlLk6GJQsqaUBKTNV-1">
            <mxGeometry x="810" y="1140" width="120" height="90" as="geometry" />
          </mxCell>
        </UserObject>
        <mxCell id="j4JM0gO3ZsuQMc5hAkjS-206" value="&amp;lt;&amp;lt;Include&amp;gt;&amp;gt;" style="edgeStyle=none;rounded=0;orthogonalLoop=1;jettySize=auto;html=1;exitX=0;exitY=0.5;exitDx=0;exitDy=0;entryX=0.993;entryY=0.611;entryDx=0;entryDy=0;entryPerimeter=0;dashed=1;fontSize=13.3;endArrow=open;endFill=0;" edge="1" parent="WIyWlLk6GJQsqaUBKTNV-1" source="j4JM0gO3ZsuQMc5hAkjS-196" target="j4JM0gO3ZsuQMc5hAkjS-134">
          <mxGeometry relative="1" as="geometry" />
        </mxCell>
        <mxCell id="j4JM0gO3ZsuQMc5hAkjS-207" value="&amp;lt;&amp;lt;Include&amp;gt;&amp;gt;" style="edgeStyle=none;rounded=0;orthogonalLoop=1;jettySize=auto;html=1;entryX=0.5;entryY=1;entryDx=0;entryDy=0;dashed=1;fontSize=13.3;endArrow=open;endFill=0;" edge="1" parent="WIyWlLk6GJQsqaUBKTNV-1" source="j4JM0gO3ZsuQMc5hAkjS-196" target="j4JM0gO3ZsuQMc5hAkjS-137">
          <mxGeometry relative="1" as="geometry" />
        </mxCell>
        <UserObject label="Display add enrollment succeed" lucidchartObjectId="L5b8oFwx1gWe" id="j4JM0gO3ZsuQMc5hAkjS-196">
          <mxCell style="html=1;overflow=block;blockSpacing=1;whiteSpace=wrap;ellipse;fontSize=13;spacing=3.8;strokeColor=#3a414a;strokeOpacity=100;rounded=1;absoluteArcSize=1;arcSize=9;strokeWidth=0.8;" vertex="1" parent="WIyWlLk6GJQsqaUBKTNV-1">
            <mxGeometry x="825" y="930" width="120" height="90" as="geometry" />
          </mxCell>
        </UserObject>
        <UserObject label="Display enrollment is exist" lucidchartObjectId="L5b8oFwx1gWe" id="j4JM0gO3ZsuQMc5hAkjS-199">
          <mxCell style="html=1;overflow=block;blockSpacing=1;whiteSpace=wrap;ellipse;fontSize=13;spacing=3.8;strokeColor=#3a414a;strokeOpacity=100;rounded=1;absoluteArcSize=1;arcSize=9;strokeWidth=0.8;" vertex="1" parent="WIyWlLk6GJQsqaUBKTNV-1">
            <mxGeometry x="990" y="1230" width="120" height="90" as="geometry" />
          </mxCell>
        </UserObject>
        <UserObject label="" lucidchartObjectId="L5b8UTUakp6x" id="j4JM0gO3ZsuQMc5hAkjS-200">
          <mxCell style="html=1;jettySize=18;whiteSpace=wrap;fontSize=13;strokeColor=#3a414a;strokeOpacity=100;dashed=1;fixDash=1;strokeWidth=0.8;rounded=0;startArrow=none;endArrow=open;exitX=0;exitY=0.5;entryX=1;entryY=0.5;entryDx=0;entryDy=0;exitDx=0;exitDy=0;" edge="1" parent="WIyWlLk6GJQsqaUBKTNV-1" source="j4JM0gO3ZsuQMc5hAkjS-199" target="j4JM0gO3ZsuQMc5hAkjS-192">
            <mxGeometry width="100" height="100" relative="1" as="geometry">
              <Array as="points" />
              <mxPoint x="960" y="1160" as="targetPoint" />
            </mxGeometry>
          </mxCell>
        </UserObject>
        <mxCell id="j4JM0gO3ZsuQMc5hAkjS-201" value="&amp;lt;&amp;lt;Extend&amp;gt;&amp;gt;" style="text;html=1;resizable=0;labelBackgroundColor=default;align=center;verticalAlign=middle;fontStyle=1;fontColor=#333333;fontSize=13.3;" vertex="1" parent="j4JM0gO3ZsuQMc5hAkjS-200">
          <mxGeometry relative="1" as="geometry" />
        </mxCell>
        <UserObject label="Display drop course succeed" lucidchartObjectId="L5b8oFwx1gWe" id="j4JM0gO3ZsuQMc5hAkjS-208">
          <mxCell style="html=1;overflow=block;blockSpacing=1;whiteSpace=wrap;ellipse;fontSize=13;spacing=3.8;strokeColor=#3a414a;strokeOpacity=100;rounded=1;absoluteArcSize=1;arcSize=9;strokeWidth=0.8;" vertex="1" parent="WIyWlLk6GJQsqaUBKTNV-1">
            <mxGeometry x="630" y="975" width="120" height="90" as="geometry" />
          </mxCell>
        </UserObject>
        <mxCell id="j4JM0gO3ZsuQMc5hAkjS-211" style="edgeStyle=none;rounded=0;orthogonalLoop=1;jettySize=auto;html=1;entryX=0.908;entryY=0.156;entryDx=0;entryDy=0;entryPerimeter=0;dashed=1;fontSize=13.3;endArrow=open;endFill=0;" edge="1" parent="WIyWlLk6GJQsqaUBKTNV-1" source="j4JM0gO3ZsuQMc5hAkjS-210" target="j4JM0gO3ZsuQMc5hAkjS-192">
          <mxGeometry relative="1" as="geometry" />
        </mxCell>
        <mxCell id="j4JM0gO3ZsuQMc5hAkjS-212" value="&amp;lt;&amp;lt;Extend&amp;gt;&amp;gt;" style="edgeLabel;html=1;align=center;verticalAlign=middle;resizable=0;points=[];fontSize=13.3;" vertex="1" connectable="0" parent="j4JM0gO3ZsuQMc5hAkjS-211">
          <mxGeometry x="-0.1758" y="-1" relative="1" as="geometry">
            <mxPoint as="offset" />
          </mxGeometry>
        </mxCell>
        <UserObject label="Display cannot find enrollment" lucidchartObjectId="L5b8oFwx1gWe" id="j4JM0gO3ZsuQMc5hAkjS-210">
          <mxCell style="html=1;overflow=block;blockSpacing=1;whiteSpace=wrap;ellipse;fontSize=13;spacing=3.8;strokeColor=#3a414a;strokeOpacity=100;rounded=1;absoluteArcSize=1;arcSize=9;strokeWidth=0.8;" vertex="1" parent="WIyWlLk6GJQsqaUBKTNV-1">
            <mxGeometry x="1020" y="1000" width="120" height="90" as="geometry" />
          </mxCell>
        </UserObject>
      </root>
    </mxGraphModel>
  </diagram>
</mxfile>
